<svg width="120" height="121" viewBox="0 0 120 121" fill="none" xmlns="http://www.w3.org/2000/svg">
<rect y="0.5" width="120" height="120" rx="60" fill="#797EF3"/>
<mask id="mask0_118719_5835" style="mask-type:alpha" maskUnits="userSpaceOnUse" x="16" y="16" width="88" height="89">
<rect x="16" y="16.5" width="88" height="88" fill="#D9D9D9"/>
</mask>
<g mask="url(#mask0_118719_5835)">
<path d="M60.0072 60.5072C55.9738 60.5072 52.5211 59.0711 49.6488 56.1988C46.7766 53.3266 45.3405 49.8738 45.3405 45.8405C45.3405 41.8072 46.7766 38.3544 49.6488 35.4822C52.5211 32.6099 55.9738 31.1738 60.0072 31.1738C64.0405 31.1738 67.4933 32.6099 70.3655 35.4822C73.2377 38.3544 74.6738 41.8072 74.6738 45.8405C74.6738 49.8738 73.2377 53.3266 70.3655 56.1988C67.4933 59.0711 64.0405 60.5072 60.0072 60.5072ZM30.6738 89.8405V79.5738C30.6738 77.4961 31.2086 75.5863 32.278 73.8447C33.3474 72.103 34.7683 70.7738 36.5405 69.8572C40.3294 67.9627 44.1794 66.5419 48.0905 65.5947C52.0016 64.6474 55.9738 64.1738 60.0072 64.1738C64.0405 64.1738 68.0127 64.6474 71.9238 65.5947C75.8349 66.5419 79.685 67.9627 83.4738 69.8572C85.2461 70.7738 86.6669 72.103 87.7363 73.8447C88.8058 75.5863 89.3405 77.4961 89.3405 79.5738V89.8405H30.6738Z" fill="#ECEEFE"/>
</g>
</svg>
